<svg viewBox="0 0 1600 500" xmlns="http://www.w3.org/2000/svg">
  <defs>
    <linearGradient id="bg" x1="0%" y1="0%" x2="100%" y2="100%"><stop offset="0%" stop-color="#0d0905"/><stop offset="55%" stop-color="#1a1208"/><stop offset="100%" stop-color="#241709"/></linearGradient>
    <linearGradient id="gold" x1="0%" y1="0%" x2="100%" y2="100%"><stop offset="0%" stop-color="#fff3d1"/><stop offset="45%" stop-color="#e9c96d"/><stop offset="100%" stop-color="#b8860b"/></linearGradient>
    <linearGradient id="blue" x1="0%" y1="0%" x2="100%" y2="100%"><stop offset="0%" stop-color="#ffd29a"/><stop offset="100%" stop-color="#f7931a"/></linearGradient>
    <linearGradient id="sky" x1="0%" y1="0%" x2="0%" y2="100%"><stop offset="0%" stop-color="#6b3d0f" stop-opacity="0.9"/><stop offset="100%" stop-color="#1a1208" stop-opacity="0.95"/></linearGradient>
    <radialGradient id="halo" cx="50%" cy="35%" r="60%"><stop offset="0%" stop-color="#f7931a" stop-opacity="0.35"/><stop offset="100%" stop-color="#f7931a" stop-opacity="0"/></radialGradient>
    <pattern id="grid" width="32" height="32" patternUnits="userSpaceOnUse"><path d="M32 0H0V32" fill="none" stroke="#ffffff" stroke-opacity="0.04" stroke-width="1"/></pattern>
    <filter id="glow" x="-40%" y="-40%" width="180%" height="180%"><feGaussianBlur stdDeviation="4" result="b"/><feMerge><feMergeNode in="b"/><feMergeNode in="SourceGraphic"/></feMerge></filter>
  </defs>
  <clipPath id="clipb"><rect x="0" y="0" width="1600" height="500"/></clipPath>
  <rect width="1600" height="500" fill="url(#bg)"/>
  <g clip-path="url(#clipb)">
    <rect width="1600" height="500" fill="url(#grid)"/>
    <ellipse cx="1220" cy="190" rx="560" ry="330" fill="url(#halo)"/>
    <rect x="700.0" y="411.3" width="19.5" height="88.7" fill="url(#sky)" fill-opacity="0.8"/>
  <rect x="722.5" y="433.0" width="19.5" height="67.0" fill="url(#sky)" fill-opacity="0.8"/>
  <rect x="745.0" y="457.3" width="19.5" height="42.7" fill="url(#sky)" fill-opacity="0.8"/>
  <rect x="767.5" y="420.9" width="19.5" height="79.1" fill="url(#sky)" fill-opacity="0.8"/>
  <rect x="790.0" y="403.6" width="19.5" height="96.4" fill="url(#sky)" fill-opacity="0.8"/>
  <rect x="812.5" y="414.6" width="19.5" height="85.4" fill="url(#sky)" fill-opacity="0.8"/>
  <rect x="835.0" y="449.9" width="19.5" height="50.1" fill="url(#sky)" fill-opacity="0.8"/>
  <rect x="857.5" y="434.4" width="19.5" height="65.6" fill="url(#sky)" fill-opacity="0.8"/>
  <rect x="880.0" y="403.1" width="19.5" height="96.9" fill="url(#sky)" fill-opacity="0.8"/>
  <rect x="902.5" y="399.7" width="19.5" height="100.3" fill="url(#sky)" fill-opacity="0.8"/>
  <rect x="925.0" y="427.1" width="19.5" height="72.9" fill="url(#sky)" fill-opacity="0.8"/>
  <rect x="947.5" y="454.7" width="19.5" height="45.3" fill="url(#sky)" fill-opacity="0.8"/>
  <rect x="970.0" y="411.1" width="19.5" height="88.9" fill="url(#sky)" fill-opacity="0.8"/>
  <rect x="992.5" y="391.2" width="19.5" height="108.8" fill="url(#sky)" fill-opacity="0.8"/>
  <rect x="1015.0" y="405.5" width="19.5" height="94.5" fill="url(#sky)" fill-opacity="0.8"/>
  <rect x="1037.5" y="448.4" width="19.5" height="51.6" fill="url(#sky)" fill-opacity="0.8"/>
  <rect x="1060.0" y="427.6" width="19.5" height="72.4" fill="url(#sky)" fill-opacity="0.8"/>
  <rect x="1082.5" y="391.2" width="19.5" height="108.8" fill="url(#sky)" fill-opacity="0.8"/>
  <rect x="1105.0" y="388.3" width="19.5" height="111.7" fill="url(#sky)" fill-opacity="0.8"/>
  <rect x="1127.5" y="421.6" width="19.5" height="78.4" fill="url(#sky)" fill-opacity="0.8"/>
  <rect x="1150.0" y="451.6" width="19.5" height="48.4" fill="url(#sky)" fill-opacity="0.8"/>
  <rect x="1172.5" y="401.0" width="19.5" height="99.0" fill="url(#sky)" fill-opacity="0.8"/>
  <rect x="1195.0" y="378.8" width="19.5" height="121.2" fill="url(#sky)" fill-opacity="0.8"/>
  <rect x="1217.5" y="396.6" width="19.5" height="103.4" fill="url(#sky)" fill-opacity="0.8"/>
  <rect x="1240.0" y="447.3" width="19.5" height="52.7" fill="url(#sky)" fill-opacity="0.8"/>
  <rect x="1262.5" y="420.5" width="19.5" height="79.5" fill="url(#sky)" fill-opacity="0.8"/>
  <rect x="1285.0" y="379.1" width="19.5" height="120.9" fill="url(#sky)" fill-opacity="0.8"/>
  <rect x="1307.5" y="377.1" width="19.5" height="122.9" fill="url(#sky)" fill-opacity="0.8"/>
  <rect x="1330.0" y="416.5" width="19.5" height="83.5" fill="url(#sky)" fill-opacity="0.8"/>
  <rect x="1352.5" y="448.2" width="19.5" height="51.8" fill="url(#sky)" fill-opacity="0.8"/>
  <rect x="1375.0" y="390.6" width="19.5" height="109.4" fill="url(#sky)" fill-opacity="0.8"/>
  <rect x="1397.5" y="366.4" width="19.5" height="133.6" fill="url(#sky)" fill-opacity="0.8"/>
  <rect x="1420.0" y="388.1" width="19.5" height="111.9" fill="url(#sky)" fill-opacity="0.8"/>
  <rect x="1442.5" y="446.6" width="19.5" height="53.4" fill="url(#sky)" fill-opacity="0.8"/>
  <rect x="1465.0" y="412.9" width="19.5" height="87.1" fill="url(#sky)" fill-opacity="0.8"/>
  <rect x="1487.5" y="367.0" width="19.5" height="133.0" fill="url(#sky)" fill-opacity="0.8"/>
  <rect x="1510.0" y="366.0" width="19.5" height="134.0" fill="url(#sky)" fill-opacity="0.8"/>
  <rect x="1532.5" y="411.8" width="19.5" height="88.2" fill="url(#sky)" fill-opacity="0.8"/>
  <rect x="1555.0" y="444.4" width="19.5" height="55.6" fill="url(#sky)" fill-opacity="0.8"/>
  <rect x="1577.5" y="380.0" width="19.5" height="120.0" fill="url(#sky)" fill-opacity="0.8"/>
  </g>
  <rect x="3" y="3" width="1594" height="494" fill="none" stroke="url(#gold)" stroke-width="5"/>
  <g filter="url(#glow)">
  <line x1="980.0" y1="250.0" x2="980.0" y2="334.0" stroke="#ff5d5d" stroke-width="4.8"/>
  <rect x="964.0" y="270.0" width="32.0" height="44.0" rx="2" fill="#ff5d5d"/>
  <line x1="1048.0" y1="234.0" x2="1048.0" y2="326.0" stroke="#3fd29a" stroke-width="4.8"/>
  <rect x="1032.0" y="254.0" width="32.0" height="52.0" rx="2" fill="#3fd29a"/>
  <line x1="1116.0" y1="246.0" x2="1116.0" y2="326.0" stroke="#ff5d5d" stroke-width="4.8"/>
  <rect x="1100.0" y="266.0" width="32.0" height="40.0" rx="2" fill="#ff5d5d"/>
  <line x1="1184.0" y1="222.0" x2="1184.0" y2="318.0" stroke="#3fd29a" stroke-width="4.8"/>
  <rect x="1168.0" y="242.0" width="32.0" height="56.0" rx="2" fill="#3fd29a"/>
  <line x1="1252.0" y1="230.0" x2="1252.0" y2="306.0" stroke="#ff5d5d" stroke-width="4.8"/>
  <rect x="1236.0" y="250.0" width="32.0" height="36.0" rx="2" fill="#ff5d5d"/>
  <line x1="1320.0" y1="210.0" x2="1320.0" y2="310.0" stroke="#3fd29a" stroke-width="4.8"/>
  <rect x="1304.0" y="230.0" width="32.0" height="60.0" rx="2" fill="#3fd29a"/>
  <line x1="1388.0" y1="174.0" x2="1388.0" y2="282.0" stroke="#3fd29a" stroke-width="4.8"/>
  <rect x="1372.0" y="194.0" width="32.0" height="68.0" rx="2" fill="#3fd29a"/>
  <line x1="1456.0" y1="142.0" x2="1456.0" y2="254.0" stroke="#3fd29a" stroke-width="4.8"/>
  <rect x="1440.0" y="162.0" width="32.0" height="72.0" rx="2" fill="#3fd29a"/>
  <line x1="1524.0" y1="102.0" x2="1524.0" y2="222.0" stroke="#3fd29a" stroke-width="4.8"/>
  <rect x="1508.0" y="122.0" width="32.0" height="80.0" rx="2" fill="#3fd29a"/>
  <line x1="948.0" y1="226.0" x2="1568.0" y2="226.0" stroke="#e9c96d" stroke-width="5.2" stroke-dasharray="20 8" stroke-linecap="round"/>
  </g>
  <text x="80" y="104" font-family="Arial, Helvetica, sans-serif" font-size="30" font-weight="800" letter-spacing="18" fill="#f3d27a">ALGOTRADERS24</text>
  <text x="76" y="250" font-family="Arial, Helvetica, sans-serif" font-size="150" font-weight="900" fill="url(#gold)" letter-spacing="2">XXX BTC</text>
  <text x="80" y="312" font-family="Arial, Helvetica, sans-serif" font-size="32" font-weight="700" fill="#ffe9cf">Multi-module 24/7 breakout EA for Bitcoin (BTCUSD), M15</text>
  <text x="80" y="348" font-family="Arial, Helvetica, sans-serif" font-size="20" font-weight="600" letter-spacing="1" fill="#c4a27a">MT5  ·  pending-order breakouts  ·  optional H1 trend filter  ·  on-chart dashboard</text>
  <rect x="80" y="372" width="271" height="40" rx="20" fill="#1a1208" stroke="url(#blue)" stroke-width="1.8"/><text x="215" y="398" text-anchor="middle" font-family="Arial, Helvetica, sans-serif" font-size="16" font-weight="800" letter-spacing="2" fill="#ffd29a">5 BREAKOUT MODULES</text>
  <rect x="367" y="372" width="271" height="40" rx="20" fill="#1a1208" stroke="url(#blue)" stroke-width="1.8"/><text x="502" y="398" text-anchor="middle" font-family="Arial, Helvetica, sans-serif" font-size="16" font-weight="800" letter-spacing="2" fill="#ffd29a">OPTIONAL AI FILTER</text>
  <rect x="654" y="372" width="221" height="40" rx="20" fill="#1a1208" stroke="url(#blue)" stroke-width="1.8"/><text x="764" y="398" text-anchor="middle" font-family="Arial, Helvetica, sans-serif" font-size="16" font-weight="800" letter-spacing="2" fill="#ffd29a">MOON-LOCK EXIT</text>
  <rect x="891" y="372" width="209" height="40" rx="20" fill="#1a1208" stroke="url(#blue)" stroke-width="1.8"/><text x="995" y="398" text-anchor="middle" font-family="Arial, Helvetica, sans-serif" font-size="16" font-weight="800" letter-spacing="2" fill="#ffd29a">SPREAD SHIELD</text>
  <text x="80" y="452" font-family="Arial, Helvetica, sans-serif" font-size="15" font-weight="600" letter-spacing="2" fill="#9c8062">PAST PERFORMANCE IS NOT A GUARANTEE OF FUTURE RESULTS  ·  EVIDENCE SHOWN BY THE MARKETPLACE, NOT BY THIS IMAGE</text>
</svg>
